<svg width="205" height="28" viewBox="0 0 205 28" fill="none" xmlns="http://www.w3.org/2000/svg">
<g clip-path="url(#clip0_13221_7049)">
<path d="M38.4531 13.9073C38.4531 9.54158 41.5105 5.91791 46.2884 5.93955C48.4682 5.93955 50.4152 6.84547 51.818 8.26773L49.8081 10.6577C49.0123 9.85386 47.4836 9.36225 46.2664 9.36225C43.4166 9.34061 41.6143 11.3812 41.6143 13.9135C41.6143 16.4457 43.4166 18.4864 46.2664 18.4864C47.4805 18.4864 49.0092 17.97 49.8081 17.1692L51.818 19.5593C50.4152 20.9815 48.465 21.8874 46.2884 21.8874C41.5136 21.8874 38.4531 18.2854 38.4531 13.9197V13.9073Z" fill="black"/>
<path d="M72.5963 21.7103H69.2433L67.6517 17.9011H60.76L59.1685 21.7103H55.8154L62.4334 6.10254H65.9752L72.5963 21.7103ZM66.3337 14.8123L64.3018 9.84989L62.1031 14.8123H66.3337Z" fill="black"/>
<path d="M77.623 6.10059H85.1438C87.8677 6.10059 90.0664 8.26181 90.0664 11.4341C89.8556 14.1735 88.5157 15.4288 86.9021 16.4584L90.8181 21.7084H86.9021L83.4043 17.0149H80.6804V21.7084H77.623V6.10059ZM86.9021 11.5577C86.9021 10.3426 85.8955 9.35324 84.6594 9.35324H80.6804V13.821H84.6594C85.8955 13.821 86.9021 12.7914 86.9021 11.5546V11.5577Z" fill="black"/>
<path d="M112.207 21.7103H108.854L107.262 17.9011H100.37L98.7788 21.7103H95.4258L102.044 6.10254H105.586L112.207 21.7103ZM105.944 14.8123L103.912 9.84989L101.713 14.8123H105.944Z" fill="black"/>
<path d="M134.998 21.7115H131.771V10.5312L127.477 18.2516H124.524L120.419 10.5312V21.7115H117.214V6.10059H121.885L126.097 13.7808L130.286 6.10059H134.998V21.7084V21.7115Z" fill="black"/>
<path d="M152.088 9.18937H143.982V12.1328H151.399V15.2433H143.982V18.601H152.088V21.7115H140.84V6.10059H152.088V9.18937Z" fill="black"/>
<path d="M160.845 18.5794H168.177V21.7084H157.64V6.10059H160.845V18.5794Z" fill="black"/>
<path d="M176.305 18.5794H183.637V21.7084H173.1V6.10059H176.305V18.5794Z" fill="black"/>
<path d="M205.001 21.7103H201.648L200.056 17.9011H193.164L191.573 21.7103H188.22L194.838 6.10254H198.379L205.001 21.7103ZM198.738 14.8123L196.706 9.84989L194.507 14.8123H198.738Z" fill="black"/>
<path d="M0.0115205 18.4124V8.83064C0.0115205 8.83064 -0.0482425 7.1332 1.58109 6.14999L12.804 0.284706C12.804 0.284706 14.2226 -0.426425 15.7292 0.399105L16.7955 1.04221L21.8722 4.08462C22.149 4.25158 22.1364 4.65043 21.8502 4.79884L15.6946 7.99584C15.314 8.19372 14.8548 8.18444 14.4805 7.97419L9.75291 5.28426C9.75291 5.28426 8.52619 4.78029 7.68322 5.20697C7.68322 5.20697 7.05413 5.57799 6.9063 6.02941C6.75846 6.48082 6.73959 6.52101 6.73644 6.91987C6.73015 7.31872 6.72701 16.9499 6.72701 16.9499C6.72701 16.9499 6.78991 18.298 7.53538 18.9503C7.53538 18.9503 7.97574 19.3306 8.15503 19.4265L15.5122 23.7056C15.5122 23.7056 16.6917 24.4168 17.6259 23.6964C17.6259 23.6964 18.4406 23.214 18.4406 22.2648V14.9154C18.4406 14.4331 18.7268 13.9941 19.1735 13.7931L25.2787 11.0692C25.5555 10.9455 25.8701 11.1465 25.8701 11.4464L25.7946 19.1111C25.7946 19.1111 25.7537 20.1098 25.3825 20.6478C25.0114 21.1858 24.7314 21.5413 24.181 21.8443L13.2475 27.5859C13.2475 27.5859 12.4485 28.0621 11.5301 27.9972C10.6116 27.9353 10.0391 27.5767 9.26537 27.1809L1.96798 22.8739C1.96798 22.8739 0.725532 22.3452 0.241137 21.1579C0.241137 21.1579 -0.0293701 20.3788 -0.00420667 19.8315L0.00837504 18.4124H0.0115205Z" fill="#0084FF"/>
<path d="M7.55404 18.9659L7.53516 18.9504C6.7897 18.298 6.72679 16.95 6.72679 16.95C6.72679 16.95 6.73308 7.31878 6.73622 6.91993C6.74252 6.52108 6.76139 6.48397 6.90922 6.02947C7.05706 5.57496 7.68614 5.20703 7.68614 5.20703L0.0113047 8.93892V18.4124L-0.00127698 19.8316C-0.0264404 20.3788 0.244066 21.158 0.244066 21.158C0.602645 22.0392 1.37956 22.5555 1.75702 22.7658L7.55404 18.969V18.9659Z" fill="#0246FF"/>
</g>
<defs>
<clipPath id="clip0_13221_7049">
<rect width="205" height="28" fill="white"/>
</clipPath>
</defs>
</svg>
